<svg id="Слой_1" xmlns="http://www.w3.org/2000/svg" viewBox="2649 -747.5 456 511"><style>.st0{fill:#fefefe}</style><g id="Слой_x0020_1"><g id="_923903888"><path class="st0" d="M3069-607.5h-64v-55h27l38 38v17h-1zm36-26l-58-57h-112v136h-23v-58l-128-55-133 55v94h454v-115z"/><path class="st0" d="M2911-666.5v-27l-127-54-134 54v27l134-54zm-262 203h81v25h-52v95h-29zm115 70h23v-21h-23v21zm-28-45h79v67h-51v27h-28v-94zm120 50h19l-3-26h-14l-3 26h1zm-19-50h57l13 94h-27l-2-20h-25l-2 20h-27l13-94zm83 0h27v35h24v-35h28v95h-28v-36h-24v36h-27v-71zm123 71h23v-46h-15l-8 46zm-15-70h65v70h11v38h-28v-14h-41v14h-28v-38h10l11-70zm-315 117v84h-64v-18h43v-15h-21v-18h21v-15h-43v-18zm19 18h45v66h-19v-49h-10l-7 49h-22v-17h6zm55 0h52v16h-32v9h16v16h-16v9h32v16h-52v-49zm61 0h19l15 26 16-26h19v66h-19v-40l-16 25-15-25v40h-19v-49zm79 0h52v16h-32v9h16v16h-16v9h32v16h-52v-49zm61 0h19v24h17v-24h20v66h-20v-25h-17v25h-19v-49zm61 0h56v17h-18v49h-20v-49h-18z"/><path class="st0" d="M2911-625.5v-27l-127-55-134 55v27l134-55z"/></g></g></svg>