<svg xmlns="http://www.w3.org/2000/svg" viewBox="1332 -747.5 435 486"><path fill="#e3a528" d="M1582-620.5h-249v-75l128-52 121 52z"/><path fill="#cd5e29" d="M1582-591.5h-249v-76l128-52 121 52z"/><path d="M1732-615.5h-61v-53h25l36 36v17zm34-25l-55-55h-107v130h-22v-74l-121-52-128 52v108h434v-110l-1 1z" fill="#9e2632"/><path d="M1333-478.5h76v25h-49v90h-27zm108 67h22v-20h-22v20zm-26-43h75v64h-49v26h-26v-90zm114 48h18l-3-25h-13l-3 25h1zm-18-48h54l13 90h-26l-2-19h-24l-2 19h-26l13-90zm79 1h26v33h23v-33h27v90h-27v-34h-23v34h-26v-67zm118 67h22v-44h-14l-7 44h-1zm-14-67h62v67h10v36h-26v-13h-39v13h-26v-36h9l10-67zm-301 112v80h-61v-17h42v-15h-21v-17h21v-14h-42v-17zm18 17h43v63h-18v-47h-9l-7 47h-21v-16h6zm53 0h50v15h-31v9h15v15h-15v9h31v15h-50v-47zm58 0h18l15 25 14-25h19v63h-19v-39l-14 25-15-25v39h-18v-47zm75 0h50v15h-31v9h16v15h-16v9h31v15h-50v-47zm58 0h19v23h16v-23h18v63h-18v-24h-16v24h-19v-47zm59 0h53v16h-18v47h-18v-47h-17z"/></svg>