<?xml version="1.0" encoding="utf-8"?>
<!-- Generator: Adobe Illustrator 24.1.0, SVG Export Plug-In . SVG Version: 6.00 Build 0)  -->
<svg version="1.1" id="Capa_1" xmlns="http://www.w3.org/2000/svg" xmlns:xlink="http://www.w3.org/1999/xlink" x="0px" y="0px"
	 viewBox="0 0 512 512" style="enable-background:new 0 0 512 512;" xml:space="preserve">
<style type="text/css">
	.st0{fill:#D8D8D8;}
</style>
<g>
	<g>
		<g>
			<rect x="2.3" y="480" class="st0" width="384" height="32"/>
			<rect x="2.3" y="384" class="st0" width="320" height="32"/>
			<rect x="2.3" y="288" class="st0" width="256" height="32"/>
			<rect x="2.3" y="192" class="st0" width="192" height="32"/>
			<rect x="2.3" y="96" class="st0" width="128" height="32"/>
			<rect x="2.3" class="st0" width="64" height="32"/>
			<polygon class="st0" points="487,428.7 466.3,449.4 466.3,128 434.3,128 434.3,449.4 413.7,428.7 391,451.3 450.3,510.6 
				509.7,451.3 			"/>
			<rect x="434.3" y="64" class="st0" width="32" height="32"/>
			<rect x="434.3" class="st0" width="32" height="32"/>
		</g>
	</g>
</g>
<g>
	<g>
		<path class="st0" d="M284.3,248L506.1,26.1c7.8-7.8,7.8-20.5,0-28.3c-7.8-7.8-20.5-7.8-28.3,0L256,219.7L34.1-2.2
			C26.3-10,13.7-10,5.9-2.2s-7.8,20.5,0,28.3L227.7,248L5.9,469.8c-7.8,7.8-7.8,20.5,0,28.3c3.9,3.9,9,5.9,14.1,5.9s10.2-2,14.1-5.9
			L256,276.3l221.9,221.9c3.9,3.9,9,5.9,14.1,5.9s10.2-2,14.1-5.9c7.8-7.8,7.8-20.5,0-28.3L284.3,248z"/>
	</g>
</g>
</svg>
