<?xml version="1.0" encoding="utf-8"?>
<!-- Generator: Adobe Illustrator 24.1.0, SVG Export Plug-In . SVG Version: 6.00 Build 0)  -->
<svg version="1.1" id="Capa_1" xmlns="http://www.w3.org/2000/svg" xmlns:xlink="http://www.w3.org/1999/xlink" x="0px" y="0px"
	 viewBox="0 0 512 512" style="enable-background:new 0 0 512 512;" xml:space="preserve">
<style type="text/css">
	.st0{fill:#DCDCDC;}
</style>
<g>
	<g>
		<g>
			<rect x="2.3" y="480" class="st0" width="384" height="32"/>
			<rect x="2.3" y="384" class="st0" width="320" height="32"/>
			<rect x="2.3" y="288" class="st0" width="256" height="32"/>
			<rect x="2.3" y="192" class="st0" width="192" height="32"/>
			<rect x="2.3" y="96" class="st0" width="128" height="32"/>
			<rect x="2.3" class="st0" width="64" height="32"/>
			<polygon class="st0" points="487,428.7 466.3,449.4 466.3,128 434.3,128 434.3,449.4 413.7,428.7 391,451.3 450.3,510.6 
				509.7,451.3 			"/>
			<rect x="434.3" y="64" class="st0" width="32" height="32"/>
			<rect x="434.3" class="st0" width="32" height="32"/>
		</g>
	</g>
</g>
<g>
	<g>
		<path class="st0" d="M273.2,240L434.7,73.2c5.7-5.9,5.7-15.4,0-21.3c-5.7-5.9-14.9-5.9-20.6,0L252.7,218.7L91.2,51.9
			c-5.7-5.9-14.9-5.9-20.6,0s-5.7,15.4,0,21.3L232.1,240L70.6,406.8c-5.7,5.9-5.7,15.4,0,21.3c2.8,2.9,6.6,4.4,10.3,4.4
			c3.7,0,7.5-1.5,10.3-4.4l161.5-166.8l161.5,166.8c2.8,2.9,6.6,4.4,10.3,4.4s7.5-1.5,10.3-4.4c5.7-5.9,5.7-15.4,0-21.3L273.2,240z"
			/>
	</g>
</g>
</svg>
